<svg width="14" height="14" viewBox="0 0 14 14" fill="none" xmlns="http://www.w3.org/2000/svg">
<path d="M13.7063 0H0.293707C0.131581 0 0 0.131581 0 0.293707V13.7061C0 13.8683 0.131581 13.9999 0.293707 13.9999H7.41978V9.32183H5.91585C5.78589 9.32183 5.68059 9.21654 5.68059 9.08657V7.1901C5.68059 7.06014 5.78589 6.9547 5.91585 6.9547H7.41993V5.64579C7.41993 3.92114 8.50591 2.80681 10.1865 2.80681L11.6826 2.80916C11.8123 2.80931 11.9176 2.9146 11.9176 3.04442V4.80535C11.9176 4.93531 11.8123 5.04061 11.6824 5.04061L10.6745 5.04105C9.98003 5.04105 9.85285 5.31184 9.85285 5.84507V6.9547H11.612C11.6744 6.9547 11.7342 6.97951 11.7784 7.02372C11.8225 7.06792 11.8473 7.12769 11.8473 7.1901L11.8467 9.08672C11.8467 9.21668 11.7414 9.32212 11.6114 9.32212H9.85271V14H13.7061C13.8683 14 13.9999 13.8684 13.9999 13.7063V0.293707C14 0.131434 13.8686 0 13.7063 0Z" fill="white"/>
</svg>
