<svg width="70" height="12" viewBox="0 0 70 12" fill="none" xmlns="http://www.w3.org/2000/svg">
<path d="M0.714 11H5.418V10.482C4.074 10.468 3.766 10.398 3.766 9.488V2.39C3.766 1.466 4.102 1.424 5.418 1.41V0.891999H0.714V1.41C2.058 1.424 2.38 1.48 2.38 2.39V9.488C2.38 10.398 2.058 10.468 0.714 10.482V11ZM6.54434 11H9.55434V10.482H9.48434C8.70034 10.482 8.61634 10.244 8.61634 9.432V8.13C8.61634 6.156 9.56834 4.952 10.6043 4.952C11.3323 4.952 11.5703 5.47 11.5703 6.534V9.446C11.5703 10.23 11.5003 10.454 10.6883 10.482V11H13.5023V10.482C12.6763 10.482 12.6483 10.3 12.6483 9.474V6.492C12.6483 4.98 12.0183 4.224 10.8423 4.224C9.89034 4.224 9.20434 4.798 8.72834 5.974H8.67234V4.126C7.34234 4.266 6.60034 4.336 6.47434 4.35V4.882H6.74034C7.45434 4.882 7.58034 5.064 7.58034 5.778V9.446C7.58034 10.272 7.51034 10.482 6.62834 10.482H6.54434V11ZM17.3216 11.224L19.3796 5.834C19.6596 5.106 19.9676 4.756 20.5416 4.742V4.294H17.8256V4.742H17.9796C18.6376 4.742 18.9456 4.924 18.9456 5.4C18.9456 5.596 18.8896 5.904 18.7636 6.24L17.4476 9.642L15.8796 5.386C15.8516 5.302 15.8236 5.218 15.8236 5.12C15.8236 4.784 16.0196 4.742 16.6496 4.742V4.294H13.6116V4.742C14.3396 4.756 14.5776 5.12 14.8856 5.904L16.9716 11.224H17.3216ZM22.4906 7.276C22.5186 5.554 23.2326 4.602 24.2546 4.602C25.1506 4.602 25.7246 5.358 25.7246 6.674C25.7246 7.276 25.5006 7.276 24.4786 7.276H22.4906ZM26.7186 9.25C26.1586 10.23 25.5146 10.692 24.6046 10.692C23.3026 10.692 22.4906 9.74 22.4906 8.018V7.808H26.9706C26.9846 7.668 26.9846 7.542 26.9846 7.416C26.9846 5.372 25.8646 4.112 24.2686 4.112C22.5326 4.112 21.2026 5.61 21.2026 7.864C21.2026 9.964 22.4486 11.294 24.3806 11.294C25.6686 11.294 26.6206 10.664 27.1106 9.488L26.7186 9.25ZM28.1092 11.224L28.4592 11.21C28.5012 10.888 28.6972 10.706 28.9772 10.706C29.3832 10.706 30.0412 11.224 30.9372 11.224C32.2532 11.224 33.1212 10.398 33.1212 9.11C33.1212 8.032 32.5612 7.528 31.3572 7.164L29.9012 6.716C29.1592 6.492 28.8092 6.128 28.8092 5.624C28.8092 5.036 29.2572 4.602 29.9852 4.602C30.9792 4.602 31.8892 5.358 32.2252 6.674H32.5472V4.168H32.2532C32.1552 4.448 31.9592 4.588 31.6652 4.588C31.3012 4.588 30.7972 4.168 29.9572 4.168C28.8932 4.168 28.1932 4.896 28.1932 6.002C28.1932 7.136 28.7812 7.724 30.0552 8.074L31.0632 8.354C32.0012 8.606 32.4212 8.984 32.4212 9.642C32.4212 10.356 31.8612 10.832 31.0352 10.832C29.9852 10.832 29.0612 9.992 28.5012 8.382H28.1092V11.224ZM34.9065 4.91V9.152C34.9065 10.538 35.4805 11.238 36.6145 11.238C37.9025 11.238 38.6305 10.314 38.6305 8.522V8.466H38.2525C38.1265 9.852 37.8045 10.468 36.9785 10.468C36.0965 10.468 35.9985 9.908 35.9985 8.746V4.91H38.0005V4.308H36.0125V1.508H35.5505C35.3965 3.258 34.9905 4.126 33.8145 4.364V4.91H34.9065ZM40.0071 5.68V9.544C40.0071 10.356 39.9511 10.482 39.0551 10.482V11H42.0091V10.482C41.2111 10.468 41.1271 10.286 41.1271 9.544V7.99C41.1271 6.184 41.9391 4.952 42.9191 4.952C43.8711 4.952 44.0111 5.624 44.0111 6.856V9.544C44.0111 10.342 43.9831 10.482 43.1011 10.482V11H45.9571V10.482C45.1731 10.468 45.0891 10.286 45.0891 9.544V7.99C45.0891 6.17 45.8871 4.952 46.8391 4.952C47.7491 4.952 47.9031 5.61 47.9031 6.856V9.544C47.9031 10.342 47.8611 10.482 46.9651 10.482V11H49.8771V10.482C49.0791 10.482 49.0091 10.286 49.0091 9.544V6.968C49.0091 5.106 48.5051 4.224 47.1331 4.224C46.3071 4.224 45.5091 4.826 45.1451 5.862H45.0891C44.8931 4.826 44.1651 4.224 43.2411 4.224C42.4151 4.224 41.7011 4.784 41.2671 5.848H41.1551V4.21H40.8051C40.1611 4.308 39.5171 4.364 38.8731 4.378V4.896H39.1111C39.7691 4.896 40.0071 5.078 40.0071 5.68ZM52.0081 7.276C52.0361 5.554 52.7501 4.602 53.7721 4.602C54.6681 4.602 55.2421 5.358 55.2421 6.674C55.2421 7.276 55.0181 7.276 53.9961 7.276H52.0081ZM56.2361 9.25C55.6761 10.23 55.0321 10.692 54.1221 10.692C52.8201 10.692 52.0081 9.74 52.0081 8.018V7.808H56.4881C56.5021 7.668 56.5021 7.542 56.5021 7.416C56.5021 5.372 55.3821 4.112 53.7861 4.112C52.0501 4.112 50.7201 5.61 50.7201 7.864C50.7201 9.964 51.9661 11.294 53.8981 11.294C55.1861 11.294 56.1381 10.664 56.6281 9.488L56.2361 9.25ZM57.4447 11H60.4547V10.482H60.3847C59.6007 10.482 59.5167 10.244 59.5167 9.432V8.13C59.5167 6.156 60.4687 4.952 61.5047 4.952C62.2327 4.952 62.4707 5.47 62.4707 6.534V9.446C62.4707 10.23 62.4007 10.454 61.5887 10.482V11H64.4027V10.482C63.5767 10.482 63.5487 10.3 63.5487 9.474V6.492C63.5487 4.98 62.9187 4.224 61.7427 4.224C60.7907 4.224 60.1047 4.798 59.6287 5.974H59.5727V4.126C58.2427 4.266 57.5007 4.336 57.3747 4.35V4.882H57.6407C58.3547 4.882 58.4807 5.064 58.4807 5.778V9.446C58.4807 10.272 58.4107 10.482 57.5287 10.482H57.4447V11ZM66.01 4.91V9.152C66.01 10.538 66.584 11.238 67.718 11.238C69.006 11.238 69.734 10.314 69.734 8.522V8.466H69.356C69.23 9.852 68.908 10.468 68.082 10.468C67.2 10.468 67.102 9.908 67.102 8.746V4.91H69.104V4.308H67.116V1.508H66.654C66.5 3.258 66.094 4.126 64.918 4.364V4.91H66.01Z" fill="white"/>
</svg>
