<svg width="14" height="12" viewBox="0 0 14 12" fill="none" xmlns="http://www.w3.org/2000/svg">
<path d="M14.001 1.65952C13.4857 1.88784 12.9328 2.04269 12.3519 2.11182C12.945 1.75662 13.3991 1.19324 13.6143 0.523981C13.0579 0.852913 12.4437 1.09176 11.7893 1.22124C11.2653 0.66222 10.52 0.314026 9.69323 0.314026C8.10716 0.314026 6.82115 1.60004 6.82115 3.18525C6.82115 3.41007 6.84652 3.62966 6.89552 3.83963C4.50898 3.71976 2.39276 2.57636 0.976401 0.838913C0.728816 1.26235 0.58797 1.75573 0.58797 2.2824C0.58797 3.27885 1.09538 4.15807 1.86524 4.67245C1.39457 4.65671 0.951901 4.52724 0.564362 4.31202V4.34789C0.564362 5.73888 1.55468 6.89978 2.8678 7.164C2.62721 7.22874 2.37352 7.26461 2.11106 7.26461C1.92561 7.26461 1.74626 7.24624 1.57042 7.21124C1.93609 8.35291 2.9964 9.18312 4.25268 9.20588C3.27023 9.97574 2.03146 10.4333 0.68597 10.4333C0.454147 10.4333 0.2258 10.4193 0.000976562 10.3939C1.27212 11.2101 2.78121 11.6861 4.40315 11.6861C9.68628 11.6861 12.5741 7.31011 12.5741 3.51507L12.5645 3.14327C13.1287 2.74081 13.6169 2.23516 14.001 1.65952Z" fill="white"/>
</svg>
